<mxfile host="app.diagrams.net" modified="2021-10-20T09:17:20.010Z" agent="5.0 (Windows NT 10.0; Win64; x64) AppleWebKit/537.36 (KHTML, like Gecko) Chrome/94.0.4606.81 Safari/537.36" etag="Xl39ZH0McKsc-7Po0uoQ" version="15.5.5" type="github">
  <diagram id="lKCu243rO5RoX7PkYq-n" name="Page-1">
    <mxGraphModel dx="2059" dy="1193" grid="1" gridSize="10" guides="1" tooltips="1" connect="1" arrows="1" fold="1" page="1" pageScale="1" pageWidth="850" pageHeight="1100" math="0" shadow="0">
      <root>
        <mxCell id="0" />
        <mxCell id="1" parent="0" />
        <mxCell id="Uo54zAvKNb7VzZr_sb48-22" value="粗硅工艺&lt;br&gt;&lt;br&gt;粉碎机：石英岩-&amp;gt;石英粉末&lt;br&gt;粉碎机：焦炭-&amp;gt;焦炭粉末&lt;br&gt;石墨电弧炉：石英粉末+焦炭粉末-&amp;gt;粗硅粉末" style="rounded=1;whiteSpace=wrap;html=1;align=left;" parent="1" vertex="1">
          <mxGeometry x="480" y="760" width="360" height="160" as="geometry" />
        </mxCell>
        <mxCell id="Uo54zAvKNb7VzZr_sb48-23" value="多晶硅工艺&lt;br&gt;&lt;br&gt;流床反应器：粗硅粉末+氯化氢(盐酸)-&amp;gt;三氯氢硅/氯化硅&lt;br&gt;分馏塔：三氯氢硅/氯化硅-&amp;gt;三氯氢硅+氯化硅&lt;br&gt;多晶硅淀积釜：三氯氢硅+氢气-&amp;gt;多晶硅棒" style="rounded=1;whiteSpace=wrap;html=1;align=left;" parent="1" vertex="1">
          <mxGeometry x="840" y="760" width="360" height="160" as="geometry" />
        </mxCell>
        <mxCell id="Uo54zAvKNb7VzZr_sb48-24" value="单晶硅工艺1&lt;br&gt;&lt;br&gt;粉碎机：多晶硅棒-&amp;gt;多晶硅粉末&lt;br&gt;硅熔融炉：多晶硅棒粉末-&amp;gt;2英寸单晶硅棒（99%）" style="rounded=1;whiteSpace=wrap;html=1;align=left;" parent="1" vertex="1">
          <mxGeometry x="1200" y="760" width="360" height="160" as="geometry" />
        </mxCell>
        <mxCell id="Uo54zAvKNb7VzZr_sb48-25" value="硅片工艺1&lt;br&gt;&lt;br&gt;硅片切割机I：2英寸单晶硅棒-&amp;gt;2英寸单晶硅片" style="rounded=1;whiteSpace=wrap;html=1;align=left;" parent="1" vertex="1">
          <mxGeometry x="480" y="960" width="360" height="160" as="geometry" />
        </mxCell>
        <mxCell id="Uo54zAvKNb7VzZr_sb48-27" value="硅片工艺2&lt;br&gt;&lt;br&gt;硅片切割机：4英寸单晶硅棒-&amp;gt;4英寸单晶硅片&lt;br&gt;打磨抛光机1：4英寸平整单晶硅片&lt;br&gt;&lt;span style=&quot;color: rgba(0 , 0 , 0 , 0) ; font-family: monospace ; font-size: 0px&quot;&gt;%3CmxGraphModel%3E%3Croot%3E%3CmxCell%20id%3D%220%22%2F%3E%3CmxCell%20id%3D%221%22%20parent%3D%220%22%2F%3E%3CmxCell%20id%3D%222%22%20value%3D%22%26lt%3Bspan%20style%3D%26quot%3Bcolor%3A%20rgb(0%2C%200%2C%200)%3B%20font-family%3A%20helvetica%3B%20font-size%3A%2012px%3B%20font-style%3A%20normal%3B%20font-weight%3A%20400%3B%20letter-spacing%3A%20normal%3B%20text-align%3A%20left%3B%20text-indent%3A%200px%3B%20text-transform%3A%20none%3B%20word-spacing%3A%200px%3B%20background-color%3A%20rgb(248%2C%20249%2C%20250)%3B%20display%3A%20inline%3B%20float%3A%20none%3B%26quot%3B%26gt%3B%E5%8C%96%E5%AD%A6%E6%9C%BA%E6%A2%B0%E6%8A%9B%E5%85%89%E6%9C%BA%EF%BC%9A%E5%8D%95%E6%99%B6%E7%A1%85%E7%89%87-%26amp%3Bgt%3B%E6%99%B6%E5%9C%86%26lt%3B%2Fspan%26gt%3B%22%20style%3D%22text%3BwhiteSpace%3Dwrap%3Bhtml%3D1%3B%22%20vertex%3D%221%22%20parent%3D%221%22%3E%3CmxGeometry%20x%3D%221000%22%20y%3D%221150%22%20width%3D%22200%22%20height%3D%2230%22%20as%3D%22geometry%22%2F%3E%3C%2FmxCell%3E%3C%2Froot%3E%3C%2FmxGraphModel%3E&lt;br&gt;化&lt;br&gt;化&lt;br&gt;&lt;/span&gt;" style="rounded=1;whiteSpace=wrap;html=1;align=left;" parent="1" vertex="1">
          <mxGeometry x="840" y="960" width="360" height="160" as="geometry" />
        </mxCell>
        <mxCell id="Uo54zAvKNb7VzZr_sb48-31" value="单晶硅工艺2&lt;br&gt;&lt;br&gt;硅熔融提纯炉1：多晶硅棒粉末-&amp;gt;4英寸单晶硅棒（99.9999%）" style="rounded=1;whiteSpace=wrap;html=1;align=left;" parent="1" vertex="1">
          <mxGeometry x="1560" y="760" width="360" height="160" as="geometry" />
        </mxCell>
        <mxCell id="Uo54zAvKNb7VzZr_sb48-33" value="单晶硅工艺4&lt;br&gt;&lt;br&gt;硅熔融高纯炉3：多晶硅棒粉末-&amp;gt;8英寸单晶硅棒（99.999999999%）" style="rounded=1;whiteSpace=wrap;html=1;align=left;" parent="1" vertex="1">
          <mxGeometry x="1920" y="760" width="360" height="160" as="geometry" />
        </mxCell>
        <mxCell id="Uo54zAvKNb7VzZr_sb48-34" value="单晶硅工艺5&lt;br&gt;&lt;br&gt;硅熔融高纯炉4：多晶硅棒粉末-&amp;gt;12英寸单晶硅棒（99.999999999%）" style="rounded=1;whiteSpace=wrap;html=1;align=left;" parent="1" vertex="1">
          <mxGeometry x="2280" y="760" width="360" height="160" as="geometry" />
        </mxCell>
        <mxCell id="Uo54zAvKNb7VzZr_sb48-35" value="硅片工艺3&lt;br&gt;&lt;br&gt;&lt;br&gt;化学机械抛光机1：8英寸超平整单晶硅片&lt;br&gt;&lt;span style=&quot;color: rgba(0 , 0 , 0 , 0) ; font-family: monospace ; font-size: 0px&quot;&gt;%3CmxGraphModel%3E%3Croot%3E%3CmxCell%20id%3D%220%22%2F%3E%3CmxCell%20id%3D%221%22%20parent%3D%220%22%2F%3E%3CmxCell%20id%3D%222%22%20value%3D%22%26lt%3Bspan%20style%3D%26quot%3Bcolor%3A%20rgb(0%2C%200%2C%200)%3B%20font-family%3A%20helvetica%3B%20font-size%3A%2012px%3B%20font-style%3A%20normal%3B%20font-weight%3A%20400%3B%20letter-spacing%3A%20normal%3B%20text-align%3A%20left%3B%20text-indent%3A%200px%3B%20text-transform%3A%20none%3B%20word-spacing%3A%200px%3B%20background-color%3A%20rgb(248%2C%20249%2C%20250)%3B%20display%3A%20inline%3B%20float%3A%20none%3B%26quot%3B%26gt%3B%E5%8C%96%E5%AD%A6%E6%9C%BA%E6%A2%B0%E6%8A%9B%E5%85%89%E6%9C%BA%EF%BC%9A%E5%8D%95%E6%99%B6%E7%A1%85%E7%89%87-%26amp%3Bgt%3B%E6%99%B6%E5%9C%86%26lt%3B%2Fspan%26gt%3B%22%20style%3D%22text%3BwhiteSpace%3Dwrap%3Bhtml%3D1%3B%22%20vertex%3D%221%22%20parent%3D%221%22%3E%3CmxGeometry%20x%3D%221000%22%20y%3D%221150%22%20width%3D%22200%22%20height%3D%2230%22%20as%3D%22geometry%22%2F%3E%3C%2FmxCell%3E%3C%2Froot%3E%3C%2FmxGraphModel%3E&lt;br&gt;化&lt;br&gt;化&lt;br&gt;&lt;/span&gt;" style="rounded=1;whiteSpace=wrap;html=1;align=left;" parent="1" vertex="1">
          <mxGeometry x="1200" y="960" width="360" height="160" as="geometry" />
        </mxCell>
        <mxCell id="Uo54zAvKNb7VzZr_sb48-36" value="硅片工艺3&lt;br&gt;&lt;br&gt;&lt;br&gt;化学机械抛光机1：12英寸超平整单晶硅片&lt;br&gt;&lt;span style=&quot;color: rgba(0 , 0 , 0 , 0) ; font-family: monospace ; font-size: 0px&quot;&gt;%3CmxGraphModel%3E%3Croot%3E%3CmxCell%20id%3D%220%22%2F%3E%3CmxCell%20id%3D%221%22%20parent%3D%220%22%2F%3E%3CmxCell%20id%3D%222%22%20value%3D%22%26lt%3Bspan%20style%3D%26quot%3Bcolor%3A%20rgb(0%2C%200%2C%200)%3B%20font-family%3A%20helvetica%3B%20font-size%3A%2012px%3B%20font-style%3A%20normal%3B%20font-weight%3A%20400%3B%20letter-spacing%3A%20normal%3B%20text-align%3A%20left%3B%20text-indent%3A%200px%3B%20text-transform%3A%20none%3B%20word-spacing%3A%200px%3B%20background-color%3A%20rgb(248%2C%20249%2C%20250)%3B%20display%3A%20inline%3B%20float%3A%20none%3B%26quot%3B%26gt%3B%E5%8C%96%E5%AD%A6%E6%9C%BA%E6%A2%B0%E6%8A%9B%E5%85%89%E6%9C%BA%EF%BC%9A%E5%8D%95%E6%99%B6%E7%A1%85%E7%89%87-%26amp%3Bgt%3B%E6%99%B6%E5%9C%86%26lt%3B%2Fspan%26gt%3B%22%20style%3D%22text%3BwhiteSpace%3Dwrap%3Bhtml%3D1%3B%22%20vertex%3D%221%22%20parent%3D%221%22%3E%3CmxGeometry%20x%3D%221000%22%20y%3D%221150%22%20width%3D%22200%22%20height%3D%2230%22%20as%3D%22geometry%22%2F%3E%3C%2FmxCell%3E%3C%2Froot%3E%3C%2FmxGraphModel%3E&lt;br&gt;化&lt;br&gt;化&lt;br&gt;&lt;/span&gt;" style="rounded=1;whiteSpace=wrap;html=1;align=left;" parent="1" vertex="1">
          <mxGeometry x="1560" y="960" width="360" height="160" as="geometry" />
        </mxCell>
        <mxCell id="Uo54zAvKNb7VzZr_sb48-37" value="制造工艺1&lt;br&gt;&lt;br&gt;光学图形发生器：&amp;gt;1.5um&lt;br&gt;刻蚀机：&lt;br&gt;气相淀积机：&lt;br&gt;离子注入机：" style="rounded=1;whiteSpace=wrap;html=1;align=left;" parent="1" vertex="1">
          <mxGeometry x="480" y="1160" width="360" height="160" as="geometry" />
        </mxCell>
        <mxCell id="Uo54zAvKNb7VzZr_sb48-38" value="制造工艺2&lt;br&gt;&lt;br&gt;重复投影曝光机: &amp;gt; 0.5um" style="rounded=1;whiteSpace=wrap;html=1;align=left;" parent="1" vertex="1">
          <mxGeometry x="840" y="1160" width="360" height="160" as="geometry" />
        </mxCell>
        <mxCell id="Uo54zAvKNb7VzZr_sb48-39" value="制造工艺3&lt;br&gt;&lt;br&gt;步进扫描投影曝光机: &amp;gt; 0.35um" style="rounded=1;whiteSpace=wrap;html=1;align=left;" parent="1" vertex="1">
          <mxGeometry x="1200" y="1160" width="360" height="160" as="geometry" />
        </mxCell>
        <mxCell id="Uo54zAvKNb7VzZr_sb48-40" value="制造工艺4&lt;br&gt;&lt;br&gt;&lt;span style=&quot;color: rgb(25 , 25 , 25) ; font-family: &amp;#34;pingfang sc&amp;#34; , &amp;#34;arial&amp;#34; , , , &amp;#34;simsun&amp;#34; , sans-serif ; font-size: 16px ; background-color: rgb(255 , 255 , 255)&quot;&gt;193nm波长步进扫描曝光机: &amp;gt; 70nm&lt;/span&gt;" style="rounded=1;whiteSpace=wrap;html=1;align=left;" parent="1" vertex="1">
          <mxGeometry x="1560" y="1160" width="360" height="160" as="geometry" />
        </mxCell>
        <mxCell id="Uo54zAvKNb7VzZr_sb48-41" value="制造工艺5&lt;br&gt;&lt;br&gt;浸没式光刻机" style="rounded=1;whiteSpace=wrap;html=1;align=left;" parent="1" vertex="1">
          <mxGeometry x="1920" y="1160" width="360" height="160" as="geometry" />
        </mxCell>
        <mxCell id="Uo54zAvKNb7VzZr_sb48-42" value="制造工艺6&lt;br&gt;&lt;br&gt;极紫外光刻机" style="rounded=1;whiteSpace=wrap;html=1;align=left;" parent="1" vertex="1">
          <mxGeometry x="2280" y="1160" width="360" height="160" as="geometry" />
        </mxCell>
        <mxCell id="Uo54zAvKNb7VzZr_sb48-43" value="测试工艺1&lt;br&gt;&lt;br&gt;封装机&lt;br&gt;测试机" style="rounded=1;whiteSpace=wrap;html=1;align=left;" parent="1" vertex="1">
          <mxGeometry x="480" y="1360" width="360" height="160" as="geometry" />
        </mxCell>
        <mxCell id="Uo54zAvKNb7VzZr_sb48-44" value="通用芯片IP1&lt;br&gt;&lt;br&gt;逻辑门" style="rounded=1;whiteSpace=wrap;html=1;align=left;" parent="1" vertex="1">
          <mxGeometry x="480" y="1560" width="360" height="160" as="geometry" />
        </mxCell>
        <mxCell id="Uo54zAvKNb7VzZr_sb48-45" value="通用芯片IP2&lt;br&gt;&lt;br&gt;加法器、乘法器、移位寄存器" style="rounded=1;whiteSpace=wrap;html=1;align=left;" parent="1" vertex="1">
          <mxGeometry x="840" y="1560" width="360" height="160" as="geometry" />
        </mxCell>
        <mxCell id="Uo54zAvKNb7VzZr_sb48-46" value="通用芯片IP3&lt;br&gt;&lt;br&gt;整数乘加单元，指令处理单元" style="rounded=1;whiteSpace=wrap;html=1;align=left;" parent="1" vertex="1">
          <mxGeometry x="1200" y="1560" width="360" height="160" as="geometry" />
        </mxCell>
        <mxCell id="Uo54zAvKNb7VzZr_sb48-47" value="计算芯片IP1&lt;br&gt;&lt;br&gt;浮点乘法器、浮点除法器" style="rounded=1;whiteSpace=wrap;html=1;align=left;" parent="1" vertex="1">
          <mxGeometry x="1560" y="1720" width="360" height="160" as="geometry" />
        </mxCell>
        <mxCell id="Uo54zAvKNb7VzZr_sb48-48" value="通用芯片IP4&lt;br&gt;&lt;br&gt;乘法器、除法器、三角函数单元、对数单元、指数单元" style="rounded=1;whiteSpace=wrap;html=1;align=left;" parent="1" vertex="1">
          <mxGeometry x="1560" y="1560" width="360" height="160" as="geometry" />
        </mxCell>
        <mxCell id="Uo54zAvKNb7VzZr_sb48-50" value="图形芯片IP1&lt;br&gt;&lt;br&gt;JPG图像编解码单元，" style="rounded=1;whiteSpace=wrap;html=1;align=left;" parent="1" vertex="1">
          <mxGeometry x="1920" y="1880" width="360" height="160" as="geometry" />
        </mxCell>
        <mxCell id="Uo54zAvKNb7VzZr_sb48-51" value="计算芯片IP2&lt;br&gt;&lt;br&gt;三角函数单元、对数单元、指数单元" style="rounded=1;whiteSpace=wrap;html=1;align=left;" parent="1" vertex="1">
          <mxGeometry x="1920" y="1720" width="360" height="160" as="geometry" />
        </mxCell>
        <mxCell id="Uo54zAvKNb7VzZr_sb48-52" value="存储芯片IP1&lt;br&gt;&lt;br&gt;NOR存储单元&lt;br&gt;SRAM存储单元1" style="rounded=1;whiteSpace=wrap;html=1;align=left;" parent="1" vertex="1">
          <mxGeometry x="1560" y="1400" width="360" height="160" as="geometry" />
        </mxCell>
        <mxCell id="Uo54zAvKNb7VzZr_sb48-53" value="存储芯片IP1&lt;br&gt;&lt;br&gt;NAND存储单元&lt;br&gt;SRAM存储单元2" style="rounded=1;whiteSpace=wrap;html=1;align=left;" parent="1" vertex="1">
          <mxGeometry x="1920" y="1400" width="360" height="160" as="geometry" />
        </mxCell>
        <mxCell id="Uo54zAvKNb7VzZr_sb48-54" value="图形芯片IP2&lt;br&gt;&lt;br&gt;x264编解码单元" style="rounded=1;whiteSpace=wrap;html=1;align=left;" parent="1" vertex="1">
          <mxGeometry x="2280" y="1880" width="360" height="160" as="geometry" />
        </mxCell>
        <mxCell id="Uo54zAvKNb7VzZr_sb48-55" value="图形芯片IP3&lt;br&gt;&lt;br&gt;3D图形计算单元" style="rounded=1;whiteSpace=wrap;html=1;align=left;" parent="1" vertex="1">
          <mxGeometry x="2640" y="1880" width="360" height="160" as="geometry" />
        </mxCell>
        <mxCell id="Uo54zAvKNb7VzZr_sb48-56" value="图形芯片IP4&lt;br&gt;&lt;br&gt;光追计算单元" style="rounded=1;whiteSpace=wrap;html=1;align=left;" parent="1" vertex="1">
          <mxGeometry x="3000" y="1880" width="360" height="160" as="geometry" />
        </mxCell>
        <mxCell id="Uo54zAvKNb7VzZr_sb48-57" value="存储芯片IP1&lt;br&gt;&lt;br&gt;RAM、ROM" style="rounded=1;whiteSpace=wrap;html=1;align=left;" parent="1" vertex="1">
          <mxGeometry x="1200" y="1400" width="360" height="160" as="geometry" />
        </mxCell>
        <mxCell id="Uo54zAvKNb7VzZr_sb48-59" value="存储芯片IP1&lt;br&gt;&lt;br&gt;NAND存储单元&lt;br&gt;DDR1" style="rounded=1;whiteSpace=wrap;html=1;align=left;" parent="1" vertex="1">
          <mxGeometry x="2280" y="1400" width="360" height="160" as="geometry" />
        </mxCell>
        <mxCell id="Uo54zAvKNb7VzZr_sb48-60" value="计算芯片IP3&lt;br&gt;&lt;br&gt;傅里叶变换FFT单元，" style="rounded=1;whiteSpace=wrap;html=1;align=left;" parent="1" vertex="1">
          <mxGeometry x="2280" y="1720" width="360" height="160" as="geometry" />
        </mxCell>
        <mxCell id="Uo54zAvKNb7VzZr_sb48-62" value="计算芯片IP3&lt;br&gt;&lt;br&gt;矩阵乘法计算单元" style="rounded=1;whiteSpace=wrap;html=1;align=left;" parent="1" vertex="1">
          <mxGeometry x="2640" y="1720" width="360" height="160" as="geometry" />
        </mxCell>
        <mxCell id="Uo54zAvKNb7VzZr_sb48-63" value="计算芯片IP3&lt;br&gt;&lt;br&gt;矩阵乘法/卷积计算单元" style="rounded=1;whiteSpace=wrap;html=1;align=left;" parent="1" vertex="1">
          <mxGeometry x="3000" y="1720" width="360" height="160" as="geometry" />
        </mxCell>
        <mxCell id="Uo54zAvKNb7VzZr_sb48-64" value="程序1&lt;br&gt;&lt;br&gt;指令翻译" style="rounded=1;whiteSpace=wrap;html=1;align=left;" parent="1" vertex="1">
          <mxGeometry x="480" y="2120" width="360" height="160" as="geometry" />
        </mxCell>
        <mxCell id="Uo54zAvKNb7VzZr_sb48-65" value="程序2&lt;br&gt;&lt;br&gt;汇编语言" style="rounded=1;whiteSpace=wrap;html=1;align=left;" parent="1" vertex="1">
          <mxGeometry x="840" y="2120" width="360" height="160" as="geometry" />
        </mxCell>
        <mxCell id="Uo54zAvKNb7VzZr_sb48-66" value="程序3&lt;br&gt;&lt;br&gt;低层级描述编程语言" style="rounded=1;whiteSpace=wrap;html=1;align=left;" parent="1" vertex="1">
          <mxGeometry x="1200" y="2120" width="360" height="160" as="geometry" />
        </mxCell>
        <mxCell id="Uo54zAvKNb7VzZr_sb48-67" value="程序4&lt;br&gt;&lt;br&gt;高层级描述编程语言&lt;br&gt;硬件描述语言" style="rounded=1;whiteSpace=wrap;html=1;align=left;" parent="1" vertex="1">
          <mxGeometry x="1560" y="2120" width="360" height="160" as="geometry" />
        </mxCell>
        <mxCell id="Uo54zAvKNb7VzZr_sb48-68" value="程序5&lt;br&gt;&lt;br&gt;面向对象语言&lt;br&gt;通用编译框架" style="rounded=1;whiteSpace=wrap;html=1;align=left;" parent="1" vertex="1">
          <mxGeometry x="1920" y="2120" width="360" height="160" as="geometry" />
        </mxCell>
        <mxCell id="Uo54zAvKNb7VzZr_sb48-70" value="设计自动化1&lt;br&gt;&lt;br&gt;" style="rounded=1;whiteSpace=wrap;html=1;align=left;" parent="1" vertex="1">
          <mxGeometry x="480" y="2320" width="360" height="160" as="geometry" />
        </mxCell>
        <mxCell id="Uo54zAvKNb7VzZr_sb48-71" value="存储芯片IP1&lt;br&gt;&lt;br&gt;NAND存储单元&lt;br&gt;SRAM存储单元3" style="rounded=1;whiteSpace=wrap;html=1;align=left;" parent="1" vertex="1">
          <mxGeometry x="2640" y="1400" width="360" height="160" as="geometry" />
        </mxCell>
        <mxCell id="Uo54zAvKNb7VzZr_sb48-72" value="存储芯片IP1&lt;br&gt;&lt;br&gt;NAND存储单元&lt;br&gt;SRAM存储单元3" style="rounded=1;whiteSpace=wrap;html=1;align=left;" parent="1" vertex="1">
          <mxGeometry x="3000" y="1400" width="360" height="160" as="geometry" />
        </mxCell>
        <mxCell id="ots6Cqh_i60pQ_UVHxKZ-3" value="石英砂" style="shape=step;perimeter=stepPerimeter;whiteSpace=wrap;html=1;fixedSize=1;" vertex="1" parent="1">
          <mxGeometry x="600" y="3090" width="120" height="40" as="geometry" />
        </mxCell>
        <mxCell id="ots6Cqh_i60pQ_UVHxKZ-6" value="&lt;p&gt;搅拌式擦洗机&lt;br&gt;&lt;/p&gt;" style="rounded=0;whiteSpace=wrap;html=1;fontSize=12;" vertex="1" parent="1">
          <mxGeometry x="720" y="3080" width="120" height="60" as="geometry" />
        </mxCell>
        <mxCell id="ots6Cqh_i60pQ_UVHxKZ-7" value="石英砂(杂质)" style="shape=step;perimeter=stepPerimeter;whiteSpace=wrap;html=1;fixedSize=1;" vertex="1" parent="1">
          <mxGeometry x="840" y="3090" width="120" height="40" as="geometry" />
        </mxCell>
        <mxCell id="ots6Cqh_i60pQ_UVHxKZ-8" value="&lt;p&gt;磁选机&lt;br&gt;&lt;/p&gt;" style="rounded=0;whiteSpace=wrap;html=1;fontSize=12;" vertex="1" parent="1">
          <mxGeometry x="960" y="3080" width="120" height="60" as="geometry" />
        </mxCell>
        <mxCell id="ots6Cqh_i60pQ_UVHxKZ-9" value="石英砂(杂质)" style="shape=step;perimeter=stepPerimeter;whiteSpace=wrap;html=1;fixedSize=1;" vertex="1" parent="1">
          <mxGeometry x="1080" y="3090" width="120" height="40" as="geometry" />
        </mxCell>
        <mxCell id="ots6Cqh_i60pQ_UVHxKZ-10" value="&lt;p&gt;浮选机&lt;br&gt;&lt;/p&gt;" style="rounded=0;whiteSpace=wrap;html=1;fontSize=12;" vertex="1" parent="1">
          <mxGeometry x="1200" y="3080" width="120" height="60" as="geometry" />
        </mxCell>
        <mxCell id="ots6Cqh_i60pQ_UVHxKZ-12" value="石英砂(杂质)" style="shape=step;perimeter=stepPerimeter;whiteSpace=wrap;html=1;fixedSize=1;" vertex="1" parent="1">
          <mxGeometry x="1320" y="3090" width="120" height="40" as="geometry" />
        </mxCell>
        <mxCell id="ots6Cqh_i60pQ_UVHxKZ-14" value="&lt;p&gt;光电色选机&lt;br&gt;&lt;/p&gt;" style="rounded=0;whiteSpace=wrap;html=1;fontSize=12;" vertex="1" parent="1">
          <mxGeometry x="1440" y="3080" width="120" height="60" as="geometry" />
        </mxCell>
        <mxCell id="ots6Cqh_i60pQ_UVHxKZ-15" value="石英砂(杂质)" style="shape=step;perimeter=stepPerimeter;whiteSpace=wrap;html=1;fixedSize=1;" vertex="1" parent="1">
          <mxGeometry x="1560" y="3090" width="120" height="40" as="geometry" />
        </mxCell>
        <mxCell id="ots6Cqh_i60pQ_UVHxKZ-16" value="&lt;p&gt;酸洗提纯机&lt;br&gt;&lt;/p&gt;" style="rounded=0;whiteSpace=wrap;html=1;fontSize=12;" vertex="1" parent="1">
          <mxGeometry x="1680" y="3080" width="120" height="60" as="geometry" />
        </mxCell>
        <mxCell id="ots6Cqh_i60pQ_UVHxKZ-17" value="石英砂" style="shape=step;perimeter=stepPerimeter;whiteSpace=wrap;html=1;fixedSize=1;" vertex="1" parent="1">
          <mxGeometry x="1800" y="3090" width="120" height="40" as="geometry" />
        </mxCell>
        <mxCell id="ots6Cqh_i60pQ_UVHxKZ-18" value="&lt;p&gt;石墨电弧炉&lt;br&gt;&lt;/p&gt;" style="rounded=0;whiteSpace=wrap;html=1;fontSize=12;" vertex="1" parent="1">
          <mxGeometry x="720" y="3200" width="120" height="60" as="geometry" />
        </mxCell>
        <mxCell id="ots6Cqh_i60pQ_UVHxKZ-19" value="焦炭" style="shape=step;perimeter=stepPerimeter;whiteSpace=wrap;html=1;fixedSize=1;direction=east;" vertex="1" parent="1">
          <mxGeometry x="600" y="3240" width="120" height="20" as="geometry" />
        </mxCell>
        <mxCell id="ots6Cqh_i60pQ_UVHxKZ-21" value="石英砂" style="shape=step;perimeter=stepPerimeter;whiteSpace=wrap;html=1;fixedSize=1;direction=east;" vertex="1" parent="1">
          <mxGeometry x="600" y="3200" width="120" height="20" as="geometry" />
        </mxCell>
        <mxCell id="ots6Cqh_i60pQ_UVHxKZ-22" value="熔融粗硅" style="shape=step;perimeter=stepPerimeter;whiteSpace=wrap;html=1;fixedSize=1;direction=north;rotation=90;horizontal=0;" vertex="1" parent="1">
          <mxGeometry x="880" y="3170" width="40" height="120" as="geometry" />
        </mxCell>
        <mxCell id="ots6Cqh_i60pQ_UVHxKZ-23" value="&lt;p&gt;浇铸炉&lt;br&gt;&lt;/p&gt;" style="rounded=0;whiteSpace=wrap;html=1;fontSize=12;" vertex="1" parent="1">
          <mxGeometry x="960" y="3200" width="120" height="60" as="geometry" />
        </mxCell>
        <mxCell id="ots6Cqh_i60pQ_UVHxKZ-24" value="&lt;p&gt;破碎机&lt;br&gt;&lt;/p&gt;" style="rounded=0;whiteSpace=wrap;html=1;fontSize=12;" vertex="1" parent="1">
          <mxGeometry x="1200" y="3200" width="120" height="60" as="geometry" />
        </mxCell>
        <mxCell id="ots6Cqh_i60pQ_UVHxKZ-25" value="粗硅块" style="shape=step;perimeter=stepPerimeter;whiteSpace=wrap;html=1;fixedSize=1;direction=north;rotation=90;horizontal=0;" vertex="1" parent="1">
          <mxGeometry x="1120" y="3170" width="40" height="120" as="geometry" />
        </mxCell>
        <mxCell id="ots6Cqh_i60pQ_UVHxKZ-27" value="粗硅颗粒" style="shape=step;perimeter=stepPerimeter;whiteSpace=wrap;html=1;fixedSize=1;direction=north;rotation=90;horizontal=0;" vertex="1" parent="1">
          <mxGeometry x="1360" y="3170" width="40" height="120" as="geometry" />
        </mxCell>
        <mxCell id="ots6Cqh_i60pQ_UVHxKZ-28" value="&lt;p&gt;合成炉&lt;br&gt;&lt;/p&gt;" style="rounded=0;whiteSpace=wrap;html=1;fontSize=12;" vertex="1" parent="1">
          <mxGeometry x="720" y="3320" width="120" height="60" as="geometry" />
        </mxCell>
        <mxCell id="ots6Cqh_i60pQ_UVHxKZ-30" value="粗硅粉" style="shape=step;perimeter=stepPerimeter;whiteSpace=wrap;html=1;fixedSize=1;direction=north;rotation=90;horizontal=0;" vertex="1" parent="1">
          <mxGeometry x="639.06" y="3290" width="41.88" height="120" as="geometry" />
        </mxCell>
        <mxCell id="ots6Cqh_i60pQ_UVHxKZ-31" value="四氯化硅&lt;br&gt;三氯化硅" style="shape=step;perimeter=stepPerimeter;whiteSpace=wrap;html=1;fixedSize=1;direction=north;rotation=90;horizontal=0;" vertex="1" parent="1">
          <mxGeometry x="880" y="3290" width="40" height="120" as="geometry" />
        </mxCell>
        <mxCell id="ots6Cqh_i60pQ_UVHxKZ-33" value="&lt;p&gt;氯化氢合成器&lt;/p&gt;" style="rounded=0;whiteSpace=wrap;html=1;fontSize=12;" vertex="1" parent="1">
          <mxGeometry x="720" y="3440" width="120" height="60" as="geometry" />
        </mxCell>
        <mxCell id="ots6Cqh_i60pQ_UVHxKZ-34" value="氢气" style="shape=step;perimeter=stepPerimeter;whiteSpace=wrap;html=1;fixedSize=1;direction=north;rotation=90;horizontal=0;" vertex="1" parent="1">
          <mxGeometry x="652.5" y="3387.5" width="15" height="120" as="geometry" />
        </mxCell>
        <mxCell id="ots6Cqh_i60pQ_UVHxKZ-35" value="氯气" style="shape=step;perimeter=stepPerimeter;whiteSpace=wrap;html=1;fixedSize=1;direction=north;rotation=90;horizontal=0;" vertex="1" parent="1">
          <mxGeometry x="652.5" y="3430" width="15" height="120" as="geometry" />
        </mxCell>
        <mxCell id="ots6Cqh_i60pQ_UVHxKZ-36" value="" style="endArrow=classic;html=1;rounded=0;fontSize=11;fontColor=#000000;entryX=0.5;entryY=1;entryDx=0;entryDy=0;" edge="1" parent="1" source="ots6Cqh_i60pQ_UVHxKZ-33" target="ots6Cqh_i60pQ_UVHxKZ-28">
          <mxGeometry width="50" height="50" relative="1" as="geometry">
            <mxPoint x="720" y="3440" as="sourcePoint" />
            <mxPoint x="770" y="3390" as="targetPoint" />
          </mxGeometry>
        </mxCell>
        <mxCell id="ots6Cqh_i60pQ_UVHxKZ-37" value="氯化氢气体" style="edgeLabel;html=1;align=center;verticalAlign=middle;resizable=0;points=[];fontSize=11;fontColor=#000000;" vertex="1" connectable="0" parent="ots6Cqh_i60pQ_UVHxKZ-36">
          <mxGeometry x="0.227" y="1" relative="1" as="geometry">
            <mxPoint as="offset" />
          </mxGeometry>
        </mxCell>
        <mxCell id="ots6Cqh_i60pQ_UVHxKZ-38" value="&lt;p&gt;分馏塔&lt;br&gt;&lt;/p&gt;" style="rounded=0;whiteSpace=wrap;html=1;fontSize=12;" vertex="1" parent="1">
          <mxGeometry x="960" y="3320" width="120" height="60" as="geometry" />
        </mxCell>
        <mxCell id="ots6Cqh_i60pQ_UVHxKZ-40" value="&lt;p&gt;分馏塔&lt;br&gt;&lt;/p&gt;" style="rounded=0;whiteSpace=wrap;html=1;fontSize=12;" vertex="1" parent="1">
          <mxGeometry x="1200" y="3320" width="120" height="60" as="geometry" />
        </mxCell>
        <mxCell id="ots6Cqh_i60pQ_UVHxKZ-41" value="四氯化硅&lt;br&gt;三氯化硅" style="shape=step;perimeter=stepPerimeter;whiteSpace=wrap;html=1;fixedSize=1;direction=north;rotation=90;horizontal=0;" vertex="1" parent="1">
          <mxGeometry x="1120" y="3290" width="40" height="120" as="geometry" />
        </mxCell>
        <mxCell id="ots6Cqh_i60pQ_UVHxKZ-43" value="三氯化硅" style="shape=step;perimeter=stepPerimeter;whiteSpace=wrap;html=1;fixedSize=1;direction=north;rotation=90;horizontal=0;" vertex="1" parent="1">
          <mxGeometry x="1360" y="3290" width="40" height="120" as="geometry" />
        </mxCell>
        <mxCell id="ots6Cqh_i60pQ_UVHxKZ-44" value="&lt;p&gt;还原炉&lt;br&gt;&lt;/p&gt;" style="rounded=0;whiteSpace=wrap;html=1;fontSize=12;" vertex="1" parent="1">
          <mxGeometry x="1440" y="3320" width="120" height="60" as="geometry" />
        </mxCell>
        <mxCell id="ots6Cqh_i60pQ_UVHxKZ-46" value="多晶硅棒" style="shape=step;perimeter=stepPerimeter;whiteSpace=wrap;html=1;fixedSize=1;direction=north;rotation=90;horizontal=0;" vertex="1" parent="1">
          <mxGeometry x="1600" y="3290" width="40" height="120" as="geometry" />
        </mxCell>
        <mxCell id="ots6Cqh_i60pQ_UVHxKZ-47" value="氢气" style="shape=step;perimeter=stepPerimeter;whiteSpace=wrap;html=1;fixedSize=1;direction=west;rotation=90;horizontal=0;" vertex="1" parent="1">
          <mxGeometry x="1440" y="3430" width="120" height="15" as="geometry" />
        </mxCell>
        <mxCell id="ots6Cqh_i60pQ_UVHxKZ-48" value="&lt;p&gt;单晶硅提拉器&lt;/p&gt;" style="rounded=0;whiteSpace=wrap;html=1;fontSize=12;" vertex="1" parent="1">
          <mxGeometry x="720" y="3560" width="120" height="60" as="geometry" />
        </mxCell>
        <mxCell id="ots6Cqh_i60pQ_UVHxKZ-49" value="多晶硅" style="shape=step;perimeter=stepPerimeter;whiteSpace=wrap;html=1;fixedSize=1;direction=north;rotation=90;horizontal=0;" vertex="1" parent="1">
          <mxGeometry x="639.06" y="3530" width="41.88" height="120" as="geometry" />
        </mxCell>
        <mxCell id="ots6Cqh_i60pQ_UVHxKZ-50" value="单晶硅棒" style="shape=step;perimeter=stepPerimeter;whiteSpace=wrap;html=1;fixedSize=1;direction=north;rotation=90;horizontal=0;" vertex="1" parent="1">
          <mxGeometry x="880" y="3530" width="41.88" height="120" as="geometry" />
        </mxCell>
        <mxCell id="ots6Cqh_i60pQ_UVHxKZ-51" value="&lt;p&gt;金刚线切割机&lt;/p&gt;" style="rounded=0;whiteSpace=wrap;html=1;fontSize=12;" vertex="1" parent="1">
          <mxGeometry x="960" y="3680" width="120" height="60" as="geometry" />
        </mxCell>
        <mxCell id="ots6Cqh_i60pQ_UVHxKZ-52" value="&lt;p&gt;滚圆机&lt;/p&gt;" style="rounded=0;whiteSpace=wrap;html=1;fontSize=12;" vertex="1" parent="1">
          <mxGeometry x="720" y="3680" width="120" height="60" as="geometry" />
        </mxCell>
        <mxCell id="ots6Cqh_i60pQ_UVHxKZ-53" value="&lt;p&gt;倒角机&lt;/p&gt;" style="rounded=0;whiteSpace=wrap;html=1;fontSize=12;" vertex="1" parent="1">
          <mxGeometry x="1200" y="3680" width="120" height="60" as="geometry" />
        </mxCell>
        <mxCell id="ots6Cqh_i60pQ_UVHxKZ-55" value="&lt;p&gt;摩片&lt;/p&gt;" style="rounded=0;whiteSpace=wrap;html=1;fontSize=12;" vertex="1" parent="1">
          <mxGeometry x="1680" y="3680" width="120" height="60" as="geometry" />
        </mxCell>
        <mxCell id="ots6Cqh_i60pQ_UVHxKZ-56" value="&lt;p&gt;CMP&lt;/p&gt;" style="rounded=0;whiteSpace=wrap;html=1;fontSize=12;" vertex="1" parent="1">
          <mxGeometry x="1920" y="3680" width="120" height="60" as="geometry" />
        </mxCell>
        <mxCell id="ots6Cqh_i60pQ_UVHxKZ-57" value="&lt;p&gt;化学清洗机&lt;/p&gt;" style="rounded=0;whiteSpace=wrap;html=1;fontSize=12;" vertex="1" parent="1">
          <mxGeometry x="1440" y="3680" width="120" height="60" as="geometry" />
        </mxCell>
        <mxCell id="ots6Cqh_i60pQ_UVHxKZ-58" value="单晶硅棒" style="shape=step;perimeter=stepPerimeter;whiteSpace=wrap;html=1;fixedSize=1;direction=north;rotation=90;horizontal=0;" vertex="1" parent="1">
          <mxGeometry x="639.06" y="3650" width="41.88" height="120" as="geometry" />
        </mxCell>
        <mxCell id="ots6Cqh_i60pQ_UVHxKZ-59" value="单晶硅棒" style="shape=step;perimeter=stepPerimeter;whiteSpace=wrap;html=1;fixedSize=1;direction=north;rotation=90;horizontal=0;" vertex="1" parent="1">
          <mxGeometry x="880" y="3650" width="41.88" height="120" as="geometry" />
        </mxCell>
        <mxCell id="ots6Cqh_i60pQ_UVHxKZ-60" value="单晶硅棒" style="shape=step;perimeter=stepPerimeter;whiteSpace=wrap;html=1;fixedSize=1;direction=north;rotation=90;horizontal=0;" vertex="1" parent="1">
          <mxGeometry x="1118.12" y="3650" width="41.88" height="120" as="geometry" />
        </mxCell>
        <mxCell id="ots6Cqh_i60pQ_UVHxKZ-61" value="单晶硅棒" style="shape=step;perimeter=stepPerimeter;whiteSpace=wrap;html=1;fixedSize=1;direction=north;rotation=90;horizontal=0;" vertex="1" parent="1">
          <mxGeometry x="1359.06" y="3650" width="41.88" height="120" as="geometry" />
        </mxCell>
        <mxCell id="ots6Cqh_i60pQ_UVHxKZ-62" value="单晶硅棒" style="shape=step;perimeter=stepPerimeter;whiteSpace=wrap;html=1;fixedSize=1;direction=north;rotation=90;horizontal=0;" vertex="1" parent="1">
          <mxGeometry x="1599.06" y="3650" width="41.88" height="120" as="geometry" />
        </mxCell>
        <mxCell id="ots6Cqh_i60pQ_UVHxKZ-63" value="单晶硅棒" style="shape=step;perimeter=stepPerimeter;whiteSpace=wrap;html=1;fixedSize=1;direction=north;rotation=90;horizontal=0;" vertex="1" parent="1">
          <mxGeometry x="1839.06" y="3650" width="41.88" height="120" as="geometry" />
        </mxCell>
      </root>
    </mxGraphModel>
  </diagram>
</mxfile>
